<?xml version="1.0" encoding="UTF-8"?>
<svg version="1.1" xmlns="http://www.w3.org/2000/svg" width="720" height="1200">
<path d="M0 0 C237.6 0 475.2 0 720 0 C720 396 720 792 720 1200 C482.4 1200 244.8 1200 0 1200 C0 804 0 408 0 0 Z " fill="#000000" transform="translate(0,0)"/>
<path d="M0 0 C68.13149079 0 68.13149079 0 86.71484375 17.58203125 C99.49482158 31.10477702 104.55655559 46.82693361 104.44604492 65.10498047 C104.43756476 67.23374335 104.46634794 69.35978344 104.49804688 71.48828125 C104.58947277 89.1095402 99.69315382 107.06888693 87.15234375 120.04296875 C62.75208426 142.22904861 32.12684518 137 0 137 C0 91.79 0 46.58 0 0 Z " fill="#FDFDFD" transform="translate(171,425)"/>
<path d="M0 0 C30.03 0 60.06 0 91 0 C91 7.59 91 15.18 91 23 C70.21 23 49.42 23 28 23 C28 33.89 28 44.78 28 56 C45.82 56 63.64 56 82 56 C82 63.26 82 70.52 82 78 C64.18 78 46.36 78 28 78 C28 89.88 28 101.76 28 114 C49.12 114 70.24 114 92 114 C92 121.59 92 129.18 92 137 C61.64 137 31.28 137 0 137 C0 91.79 0 46.58 0 0 Z " fill="#FCFCFC" transform="translate(296,425)"/>
<path d="M0 0 C1.14650024 -0.00845947 1.14650024 -0.00845947 2.31616211 -0.01708984 C13.47691089 0.12554726 23.86087435 4.62425898 31.99609375 12.25 C45.18507468 26.72771711 45.77107213 42.73552678 45.09643555 61.36499023 C44.08129129 74.87748921 38.68486721 86.01719435 28.875 95.3125 C28.24722656 95.910625 27.61945313 96.50875 26.97265625 97.125 C18.69908194 104.12168018 7.94338011 106.04863742 -2.6328125 105.6953125 C-12.13862988 104.65328778 -20.05349156 101.77250328 -27.125 95.3125 C-27.71667969 94.82265625 -28.30835938 94.3328125 -28.91796875 93.828125 C-38.06005047 85.67492187 -42.53317919 74.2761043 -43.32592773 62.26928711 C-43.42830931 58.98932174 -43.44709494 55.71896877 -43.4375 52.4375 C-43.45361328 51.34308594 -43.46972656 50.24867188 -43.48632812 49.12109375 C-43.49521097 34.10908902 -39.22510275 22.21467222 -29.03515625 11.12890625 C-20.39331367 2.91120318 -11.67685549 0.08260534 0 0 Z " fill="#020202" transform="translate(308.125,619.6875)"/>
<path d="M0 0 C1.98 0 3.96 0 6 0 C6 48.18 6 96.36 6 146 C4.02 146 2.04 146 0 146 C-0.33 141.71 -0.66 137.42 -1 133 C-2.32 134.65 -3.64 136.3 -5 138 C-16.34369344 146.87924886 -27.87578725 149.43047582 -42 148 C-50.86677401 145.8781246 -57.62074142 141.34753136 -63 134 C-73.61991818 116.28500828 -75.2930126 93.39745931 -70.375 73.5 C-66.4218633 61.43325755 -60.45307832 51.14722944 -49 45 C-38.77201655 40.82097629 -27.13588401 42.08769319 -16.9140625 45.6640625 C-10.04373903 48.81372822 -5.68729861 53.14087673 -1 59 C-0.67 39.53 -0.34 20.06 0 0 Z " fill="#010101" transform="translate(445,577)"/>
<path d="M0 0 C28.91281847 0 28.91281847 0 38.28515625 9.02734375 C47.18155987 19.26124769 48.5024559 31.87327031 48.375 44.9375 C48.38660156 46.12279297 48.39820313 47.30808594 48.41015625 48.52929688 C48.36966191 60.83282726 46.3612946 72.67210212 38.09765625 82.19140625 C26.87401368 93.21208964 15.90932908 92 0 92 C0 61.64 0 31.28 0 0 Z " fill="#040404" transform="translate(199,448)"/>
<path d="M0 0 C9.91466317 5.85437254 15.75645454 13.72268189 19.2734375 24.515625 C20.4609375 30.453125 20.4609375 30.453125 20.4609375 46.453125 C-4.2890625 46.453125 -29.0390625 46.453125 -54.5390625 46.453125 C-53.57043875 62.91972882 -52.48264221 76.50954529 -40.5390625 88.453125 C-30.77046388 95.28786598 -22.44802053 97.44969053 -10.5390625 96.453125 C-2.89323617 94.94453146 3.39287333 92.40609606 9.55859375 87.625 C11.4609375 86.453125 11.4609375 86.453125 15.4609375 86.453125 C15.4609375 87.773125 15.4609375 89.093125 15.4609375 90.453125 C11.31985459 94.59420791 6.76932139 97.06931852 1.4609375 99.453125 C0.1615625 100.0409375 0.1615625 100.0409375 -1.1640625 100.640625 C-10.69194368 103.9001633 -24.01482262 104.22738154 -33.16796875 99.84375 C-44.2991283 93.31542578 -51.29311405 86.18681647 -56.5390625 74.453125 C-56.9309375 73.586875 -57.3228125 72.720625 -57.7265625 71.828125 C-60.14662926 64.75408369 -59.79337885 57.27219136 -59.8515625 49.890625 C-59.88056641 48.69115234 -59.90957031 47.49167969 -59.93945312 46.25585938 C-60.03866789 32.11393982 -56.11654563 19.69258156 -46.4375 9.16796875 C-34.15599928 -2.44087027 -15.91108358 -6.95191959 0 0 Z " fill="#030303" transform="translate(535.5390625,622.546875)"/>
<path d="M0 0 C7.10965732 6.09399199 11.45699031 15.36962914 12.22045898 24.69189453 C12.93658674 43.31727234 11.8614594 58.36817056 -0.7734375 73.0625 C-7.75882088 79.90051242 -17.0032573 83.23733776 -26.6875 83.5 C-34.42040308 83.17273082 -41.58830569 81.48818602 -48 77 C-46.40396861 72.25750674 -43.76517096 68.56663732 -40.9375 64.5 C-35.40049332 56.38684257 -30.41199133 47.9981706 -25.5 39.5 C-17.61795567 25.88016052 -9.18097007 12.78070294 0 0 Z " fill="#020202" transform="translate(336,637)"/>
<path d="M0 0 C1.14650024 -0.00845947 1.14650024 -0.00845947 2.31616211 -0.01708984 C13.47691089 0.12554726 23.86087435 4.62425898 31.99609375 12.25 C45.18507468 26.72771711 45.77107213 42.73552678 45.09643555 61.36499023 C44.08129129 74.87748921 38.68486721 86.01719435 28.875 95.3125 C28.24722656 95.910625 27.61945313 96.50875 26.97265625 97.125 C18.69908194 104.12168018 7.94338011 106.04863742 -2.6328125 105.6953125 C-12.13862988 104.65328778 -20.05349156 101.77250328 -27.125 95.3125 C-27.71667969 94.82265625 -28.30835938 94.3328125 -28.91796875 93.828125 C-38.06005047 85.67492187 -42.53317919 74.2761043 -43.32592773 62.26928711 C-43.42830931 58.98932174 -43.44709494 55.71896877 -43.4375 52.4375 C-43.45361328 51.34308594 -43.46972656 50.24867188 -43.48632812 49.12109375 C-43.49521097 34.10908902 -39.22510275 22.21467222 -29.03515625 11.12890625 C-20.39331367 2.91120318 -11.67685549 0.08260534 0 0 Z M-28.125 18.3125 C-36.31591532 28.87446976 -38.63563928 38.74934955 -38.4375 51.9375 C-38.44072266 53.01773438 -38.44394531 54.09796875 -38.44726562 55.2109375 C-38.38931 63.8515942 -37.22143134 70.71146756 -33.25 78.5 C-32.51136719 79.97533203 -32.51136719 79.97533203 -31.7578125 81.48046875 C-30.09678655 84.36143481 -28.35377024 86.84461069 -26.125 89.3125 C-25.465 89.3125 -24.805 89.3125 -24.125 89.3125 C-22.50776186 87.15720153 -21.02356748 85.00864169 -19.5625 82.75 C-19.11414795 82.06599121 -18.6657959 81.38198242 -18.20385742 80.67724609 C-13.05764066 72.76767348 -8.2692432 64.64903387 -3.47998047 56.52050781 C-1.61739614 53.36439183 0.25175047 50.21229755 2.125 47.0625 C2.76083008 45.99314209 3.39666016 44.92378418 4.05175781 43.82202148 C8.72781945 36.03624916 13.68772681 28.50563917 19.01464844 21.14941406 C19.52415039 20.43366211 20.03365234 19.71791016 20.55859375 18.98046875 C21.23233032 18.05657349 21.23233032 18.05657349 21.91967773 17.11401367 C23.18732848 15.06337844 23.18732848 15.06337844 22.875 11.3125 C21.69179424 10.67940809 20.50312152 10.05653282 19.3125 9.4375 C18.65121094 9.08945312 17.98992187 8.74140625 17.30859375 8.3828125 C0.37040207 0.93327073 -15.97839481 4.98384263 -28.125 18.3125 Z M27.875 17.3125 C16.23533865 33.80396408 5.79019925 50.95041915 -4.359375 68.39038086 C-8.24013916 74.99207907 -12.41093623 81.32095127 -16.96337891 87.47973633 C-18.09074601 89.0401082 -19.1187071 90.67143584 -20.125 92.3125 C-19.46094088 95.39009869 -19.46094088 95.39009869 -17.234375 96.4453125 C-16.45578125 96.77273438 -15.6771875 97.10015625 -14.875 97.4375 C-14.10671875 97.77007813 -13.3384375 98.10265625 -12.546875 98.4453125 C-2.33045479 102.10345006 8.10096603 101.09544608 17.93359375 96.84765625 C28.12500271 91.52863404 34.25774774 82.27253749 38.3125 71.6875 C40.1465421 65.08177261 40.29537925 58.51886009 40.375 51.6875 C40.39361084 50.63868652 40.41222168 49.58987305 40.43139648 48.50927734 C40.35422872 38.9629506 37.80202392 30.80776881 32.75 22.6875 C32.25242187 21.87023437 31.75484375 21.05296875 31.2421875 20.2109375 C30.00596197 18.18445875 30.00596197 18.18445875 27.875 17.3125 Z " fill="#F3F3F3" transform="translate(308.125,619.6875)"/>
<path d="M0 0 C1.98 0 3.96 0 6 0 C6 48.18 6 96.36 6 146 C4.02 146 2.04 146 0 146 C-0.33 141.71 -0.66 137.42 -1 133 C-2.32 134.65 -3.64 136.3 -5 138 C-16.34369344 146.87924886 -27.87578725 149.43047582 -42 148 C-50.86677401 145.8781246 -57.62074142 141.34753136 -63 134 C-73.61991818 116.28500828 -75.2930126 93.39745931 -70.375 73.5 C-66.4218633 61.43325755 -60.45307832 51.14722944 -49 45 C-38.77201655 40.82097629 -27.13588401 42.08769319 -16.9140625 45.6640625 C-10.04373903 48.81372822 -5.68729861 53.14087673 -1 59 C-0.67 39.53 -0.34 20.06 0 0 Z M-57 58 C-64.45146001 68.7524954 -67.39651666 81.20203701 -67.3125 94.125 C-67.30686035 95.04079834 -67.3012207 95.95659668 -67.29541016 96.90014648 C-67.05832086 110.31916612 -64.95756791 123.90249158 -55.92578125 134.4140625 C-49.12538194 140.9414964 -42.88236724 143.09092433 -33.5625 143.375 C-22.82917071 143.07511653 -13.89761402 139.8344704 -6.17578125 132.1953125 C-2.14761554 127.65021511 0.22292891 124.0706695 0.33813477 117.85522461 C0.36057755 116.82993149 0.38302032 115.80463837 0.40614319 114.74827576 C0.41778 113.64411819 0.42941681 112.53996063 0.44140625 111.40234375 C0.45517807 110.25770157 0.46894989 109.11305939 0.48313904 107.93373108 C0.50641543 105.50868561 0.52367859 103.08357611 0.53540039 100.65844727 C0.56222791 96.97485964 0.63711568 93.29418786 0.71289062 89.61132812 C0.7295576 87.25001924 0.74332069 84.88868773 0.75390625 82.52734375 C0.78376114 81.4373558 0.81361603 80.34736786 0.84437561 79.22434998 C0.79150079 69.88033092 -2.67744815 63.46808275 -9.13645935 56.79161072 C-17.70199764 48.82391273 -25.94759446 47.58045302 -37.3359375 47.79296875 C-45.78056373 48.27011714 -51.35735797 51.7398156 -57 58 Z " fill="#E9E9E9" transform="translate(445,577)"/>
<path d="M0 0 C9.91466317 5.85437254 15.75645454 13.72268189 19.2734375 24.515625 C20.4609375 30.453125 20.4609375 30.453125 20.4609375 46.453125 C-4.2890625 46.453125 -29.0390625 46.453125 -54.5390625 46.453125 C-53.57043875 62.91972882 -52.48264221 76.50954529 -40.5390625 88.453125 C-30.77046388 95.28786598 -22.44802053 97.44969053 -10.5390625 96.453125 C-2.89323617 94.94453146 3.39287333 92.40609606 9.55859375 87.625 C11.4609375 86.453125 11.4609375 86.453125 15.4609375 86.453125 C15.4609375 87.773125 15.4609375 89.093125 15.4609375 90.453125 C11.31985459 94.59420791 6.76932139 97.06931852 1.4609375 99.453125 C0.1615625 100.0409375 0.1615625 100.0409375 -1.1640625 100.640625 C-10.69194368 103.9001633 -24.01482262 104.22738154 -33.16796875 99.84375 C-44.2991283 93.31542578 -51.29311405 86.18681647 -56.5390625 74.453125 C-56.9309375 73.586875 -57.3228125 72.720625 -57.7265625 71.828125 C-60.14662926 64.75408369 -59.79337885 57.27219136 -59.8515625 49.890625 C-59.88056641 48.69115234 -59.90957031 47.49167969 -59.93945312 46.25585938 C-60.03866789 32.11393982 -56.11654563 19.69258156 -46.4375 9.16796875 C-34.15599928 -2.44087027 -15.91108358 -6.95191959 0 0 Z M-44.5390625 14.453125 C-50.83490523 22.86591049 -53.5390625 30.9962534 -53.5390625 41.453125 C-30.7690625 41.453125 -7.9990625 41.453125 15.4609375 41.453125 C15.4609375 28.89712218 14.07480839 19.93004269 5.4609375 10.453125 C-9.99091251 -2.526429 -31.25698733 -0.3047363 -44.5390625 14.453125 Z " fill="#F4F4F4" transform="translate(535.5390625,622.546875)"/>
<path d="M0 0 C0.77730469 0.41378906 1.55460937 0.82757812 2.35546875 1.25390625 C3.16371094 1.67800781 3.97195312 2.10210938 4.8046875 2.5390625 C12.7723305 7.26696967 17.25437775 14.25254844 19.8984375 23.03515625 C20.61455011 26.51166873 20.54847985 29.71536936 20.35546875 33.25390625 C18.70546875 33.25390625 17.05546875 33.25390625 15.35546875 33.25390625 C15.26910156 32.48046875 15.18273437 31.70703125 15.09375 30.91015625 C13.8039077 21.34875645 11.06774354 14.59819896 3.33203125 8.57421875 C-5.87013505 2.42731715 -15.88859452 2.05178762 -26.64453125 3.25390625 C-30.1390769 4.05523354 -32.7147363 5.20731352 -35.64453125 7.25390625 C-36.33675781 7.72828125 -37.02898437 8.20265625 -37.7421875 8.69140625 C-45.58278979 14.7880241 -50.09250313 23.83925206 -52.16796875 33.44140625 C-54.33119182 50.74719085 -54.00817901 68.8150374 -44.39453125 83.94140625 C-39.72201663 89.8910073 -33.56655934 94.57155472 -25.98828125 96 C-13.78740261 97.32176185 -2.63948098 96.16468711 7.41796875 88.50390625 C12.76957469 83.33821218 14.74071435 76.47727045 15.35546875 69.25390625 C17.00546875 69.25390625 18.65546875 69.25390625 20.35546875 69.25390625 C19.85049164 77.20729575 18.31119765 83.72345229 13.10546875 89.94140625 C12.19796875 90.70453125 11.29046875 91.46765625 10.35546875 92.25390625 C9.80246094 92.74632812 9.24945313 93.23875 8.6796875 93.74609375 C-0.1070443 101.05927425 -10.44286839 103.2249062 -21.671875 102.69921875 C-31.49054452 101.59860093 -40.15527034 97.8008881 -46.64453125 90.25390625 C-59.32133932 73.9775107 -60.25038522 53.36143354 -58.14453125 33.56640625 C-56.24197001 23.02810605 -50.55467122 10.59417427 -41.64453125 4.25390625 C-38.72689315 2.38943976 -35.77579884 0.73102365 -32.64453125 -0.74609375 C-31.9175 -1.11347656 -31.19046875 -1.48085938 -30.44140625 -1.859375 C-21.25894541 -4.77057418 -8.70804349 -3.87474183 0 0 Z " fill="#F1F1F1" transform="translate(226.64453125,622.74609375)"/>
</svg>
